<svg id="Layer_1" data-name="Layer 1" xmlns="http://www.w3.org/2000/svg" viewBox="0 0 719 199"><defs><style>.cls-1{fill:#0b5be0;}.cls-2{fill:#38d102;}.cls-3{fill:#3ceaf3;}.cls-4{fill:none;}</style></defs><title>phemex_logo-freelogovectors.net</title><path class="cls-1" d="M540.84,366.22a30.4,30.4,0,0,0-52.28-21.3,30.27,30.27,0,0,0-37.39-4.82H436.36v26.2h0v48h17.4v-48a13.07,13.07,0,0,1,13.05-13.09h0a13.08,13.08,0,0,1,13.05,13.1h.05v48H497.3v-48h.05v-.07a13,13,0,1,1,26.09,0h0v.08h0v48h17.39V366.22M214.59,396.84A21.79,21.79,0,0,1,192.85,375h0a21.8,21.8,0,0,1,21.74-21.84h0A21.8,21.8,0,0,1,236.34,375h0a21.79,21.79,0,0,1-21.73,21.84h0m0-61.15a38.81,38.81,0,0,0-21.74,6.63v-.07h-17.4V434h17.4V407.68a38.81,38.81,0,0,0,21.74,6.63,39.31,39.31,0,0,0,0-78.62M711.5,414.32,683.23,375l27.48-38.21H690.06l-17.17,23.85L655.73,336.8H635.08L662.57,375l-28.28,39.31H655l17.95-24.95,17.94,24.95ZM299.42,335.7a32.25,32.25,0,0,0-15.23,3.8V316.06h-17.4v98.25h17.4V368.45a15.27,15.27,0,0,1,15.22-15.29h0a15.25,15.25,0,0,1,15.21,15.29h0v45.86H332V368.45h0a32.7,32.7,0,0,0-32.62-32.76m84.8,17.51A21.77,21.77,0,0,1,405,368.45H363.49A21.75,21.75,0,0,1,384.22,353.2Zm38.57,28.36a40.14,40.14,0,0,0,.57-6.53,39.25,39.25,0,1,0-5.24,19.65L403.05,386a21.71,21.71,0,0,1-39.57-4.39ZM593,353.2a21.77,21.77,0,0,1,20.74,15.25H572.25A21.75,21.75,0,0,1,593,353.2Zm38.56,28.36a39.1,39.1,0,1,0-4.66,13.12L611.81,386a21.71,21.71,0,0,1-39.58-4.39Z" transform="translate(-15.5 -275.5)"/><path class="cls-2" d="M38.5,414.29a39.22,39.22,0,0,0,39.13,39.3V375a39.21,39.21,0,0,1-39.12,39.29" transform="translate(-15.5 -275.5)"/><path class="cls-1" d="M38.5,335.71v78.58a39.29,39.29,0,0,0,0-78.58M97.19,375a39.21,39.21,0,0,0,39.13,39.29V335.71A39.2,39.2,0,0,1,97.2,375" transform="translate(-15.5 -275.5)"/><path class="cls-3" d="M97.19,296.41V375a39.3,39.3,0,0,0,0-78.59" transform="translate(-15.5 -275.5)"/><rect class="cls-4" width="719" height="199"/></svg>